<svg width="84" height="105" viewBox="0 0 84 105" fill="none" xmlns="http://www.w3.org/2000/svg">
<path d="M41.1579 104.728C33.1899 104.728 25.4619 103.672 17.9739 101.56C10.5819 99.352 4.62994 96.52 0.117938 93.064L8.03794 75.496C12.3579 78.664 17.4939 81.208 23.4459 83.128C29.3979 85.048 35.3499 86.008 41.3019 86.008C47.9259 86.008 52.8219 85.048 55.9899 83.128C59.1579 81.112 60.7419 78.472 60.7419 75.208C60.7419 72.808 59.7819 70.84 57.8619 69.304C56.0379 67.672 53.6379 66.376 50.6619 65.416C47.7819 64.456 43.8459 63.4 38.8539 62.248C31.1739 60.424 24.8859 58.6 19.9899 56.776C15.0939 54.952 10.8699 52.024 7.31794 47.992C3.86194 43.96 2.13394 38.584 2.13394 31.864C2.13394 26.008 3.71794 20.728 6.88594 16.024C10.0539 11.224 14.8059 7.43199 21.1419 4.648C27.5739 1.864 35.3979 0.471998 44.6139 0.471998C51.0459 0.471998 57.3339 1.24 63.4779 2.77599C69.6219 4.312 74.9979 6.52 79.6059 9.39999L72.4059 27.112C63.0939 21.832 53.7819 19.192 44.4699 19.192C37.9419 19.192 33.0939 20.248 29.9259 22.36C26.8539 24.472 25.3179 27.256 25.3179 30.712C25.3179 34.168 27.0939 36.76 30.6459 38.488C34.2939 40.12 39.8139 41.752 47.2059 43.384C54.8859 45.208 61.1739 47.032 66.0699 48.856C70.9659 50.68 75.1419 53.56 78.5979 57.496C82.1499 61.432 83.9259 66.76 83.9259 73.48C83.9259 79.24 82.2939 84.52 79.0299 89.32C75.8619 94.024 71.0619 97.768 64.6299 100.552C58.1979 103.336 50.3739 104.728 41.1579 104.728Z" fill="#75E6DA"/>
</svg>
